<svg width="133" height="129" viewBox="0 0 133 129" fill="none" xmlns="http://www.w3.org/2000/svg">
<g filter="url(#filter0_d_3_146)">
<g filter="url(#filter1_d_3_146)">
<path d="M28.7743 30.833C28.216 31.786 28.536 33.0113 29.489 33.5696C30.4421 34.128 31.6673 33.808 32.2257 32.855L28.7743 30.833ZM104 10.8439L105.079 9.15965L104 10.8439ZM107 81.3439L128.132 72.0282L109.498 58.3854L107 81.3439ZM30.5 31.844C32.2257 32.855 32.2253 32.8555 32.2251 32.8559C32.2251 32.8558 32.225 32.856 32.2252 32.8558C32.2254 32.8553 32.2261 32.8541 32.2273 32.8522C32.2296 32.8483 32.2336 32.8415 32.2394 32.8318C32.251 32.8123 32.2695 32.7814 32.295 32.7393C32.3459 32.6553 32.4245 32.5271 32.5304 32.3585C32.742 32.0214 33.0625 31.5232 33.4884 30.895C34.3407 29.6379 35.6128 27.8633 37.2778 25.8173C40.6149 21.7166 45.4945 16.5697 51.6959 12.3043C57.8933 8.04168 65.3528 4.69808 73.8828 4.09674C82.3865 3.49725 92.1201 5.61043 102.921 12.5281L105.079 9.15965C93.6299 1.82729 83.051 -0.559517 73.6015 0.106643C64.1784 0.770947 56.0442 4.45863 49.4291 9.00857C42.818 13.5557 37.6664 19.0026 34.1753 23.2925C32.4263 25.4418 31.0851 27.3117 30.1776 28.6504C29.7236 29.32 29.3776 29.8575 29.1427 30.2315C29.0253 30.4186 28.9356 30.5648 28.8741 30.6663C28.8433 30.7171 28.8196 30.7567 28.803 30.7846C28.7946 30.7986 28.7881 30.8096 28.7833 30.8177C28.7809 30.8218 28.779 30.8251 28.7775 30.8276C28.7767 30.8289 28.776 30.8302 28.7756 30.8309C28.7749 30.832 28.7743 30.833 30.5 31.844ZM102.921 12.5281C116.479 21.2109 121.557 30.994 122.441 40.193C123.337 49.5171 119.961 58.6052 115.892 65.8376L119.378 67.7989C123.635 60.2333 127.431 50.294 126.423 39.8103C125.403 29.2015 119.501 18.3964 105.079 9.15965L102.921 12.5281Z" fill="black"/>
</g>
<g filter="url(#filter2_d_3_146)">
<path d="M103.812 89.8548C104.371 88.9018 104.051 87.6765 103.098 87.1182C102.145 86.5598 100.919 86.8798 100.361 87.8329L103.812 89.8548ZM28.5867 109.844L27.508 111.528L28.5867 109.844ZM25.5867 39.3439L4.45495 48.6597L23.0885 62.3024L25.5867 39.3439ZM102.087 88.8438C100.361 87.8329 100.361 87.8323 100.362 87.8319C100.362 87.832 100.362 87.8318 100.362 87.832C100.361 87.8325 100.361 87.8337 100.359 87.8356C100.357 87.8395 100.353 87.8463 100.347 87.856C100.336 87.8755 100.317 87.9064 100.292 87.9485C100.241 88.0325 100.162 88.1607 100.056 88.3293C99.8446 88.6664 99.5242 89.1646 99.0982 89.7928C98.246 91.0499 96.9739 92.8245 95.3089 94.8705C91.9718 98.9712 87.0922 104.118 80.8908 108.384C74.6934 112.646 67.2339 115.99 58.7038 116.591C50.2002 117.191 40.4665 115.077 29.6653 108.16L27.508 111.528C38.9568 118.861 49.5357 121.247 58.9851 120.581C68.4082 119.917 76.5424 116.229 83.1576 111.679C89.7686 107.132 94.9203 101.685 98.4114 97.3953C100.16 95.246 101.502 93.3761 102.409 92.0374C102.863 91.3678 103.209 90.8303 103.444 90.4563C103.561 90.2692 103.651 90.123 103.713 90.0215C103.743 89.9707 103.767 89.9311 103.784 89.9032C103.792 89.8892 103.799 89.8782 103.803 89.8701C103.806 89.866 103.808 89.8627 103.809 89.8602C103.81 89.8589 103.811 89.8576 103.811 89.857C103.812 89.8558 103.812 89.8548 102.087 88.8438ZM29.6653 108.16C16.1078 99.4769 11.0297 89.6938 10.1455 80.4948C9.24926 71.1707 12.6257 62.0826 16.6947 54.8502L13.2085 52.8889C8.95206 60.4545 5.15615 70.3938 6.16385 80.8775C7.18357 91.4863 13.0857 102.291 27.508 111.528L29.6653 108.16Z" fill="black"/>
</g>
</g>
<defs>
<filter id="filter0_d_3_146" x="0.454956" y="-3.05176e-05" width="131.677" height="128.688" filterUnits="userSpaceOnUse" color-interpolation-filters="sRGB">
<feFlood flood-opacity="0" result="BackgroundImageFix"/>
<feColorMatrix in="SourceAlpha" type="matrix" values="0 0 0 0 0 0 0 0 0 0 0 0 0 0 0 0 0 0 127 0" result="hardAlpha"/>
<feOffset dy="4"/>
<feGaussianBlur stdDeviation="2"/>
<feComposite in2="hardAlpha" operator="out"/>
<feColorMatrix type="matrix" values="0 0 0 0 0 0 0 0 0 0 0 0 0 0 0 0 0 0 0.25 0"/>
<feBlend mode="normal" in2="BackgroundImageFix" result="effect1_dropShadow_3_146"/>
<feBlend mode="normal" in="SourceGraphic" in2="effect1_dropShadow_3_146" result="shape"/>
</filter>
<filter id="filter1_d_3_146" x="24.4997" y="-3.05176e-05" width="107.632" height="89.344" filterUnits="userSpaceOnUse" color-interpolation-filters="sRGB">
<feFlood flood-opacity="0" result="BackgroundImageFix"/>
<feColorMatrix in="SourceAlpha" type="matrix" values="0 0 0 0 0 0 0 0 0 0 0 0 0 0 0 0 0 0 127 0" result="hardAlpha"/>
<feOffset dy="4"/>
<feGaussianBlur stdDeviation="2"/>
<feComposite in2="hardAlpha" operator="out"/>
<feColorMatrix type="matrix" values="0 0 0 0 0 0 0 0 0 0 0 0 0 0 0 0 0 0 0.25 0"/>
<feBlend mode="normal" in2="BackgroundImageFix" result="effect1_dropShadow_3_146"/>
<feBlend mode="normal" in="SourceGraphic" in2="effect1_dropShadow_3_146" result="shape"/>
</filter>
<filter id="filter2_d_3_146" x="0.454956" y="39.3439" width="107.632" height="89.344" filterUnits="userSpaceOnUse" color-interpolation-filters="sRGB">
<feFlood flood-opacity="0" result="BackgroundImageFix"/>
<feColorMatrix in="SourceAlpha" type="matrix" values="0 0 0 0 0 0 0 0 0 0 0 0 0 0 0 0 0 0 127 0" result="hardAlpha"/>
<feOffset dy="4"/>
<feGaussianBlur stdDeviation="2"/>
<feComposite in2="hardAlpha" operator="out"/>
<feColorMatrix type="matrix" values="0 0 0 0 0 0 0 0 0 0 0 0 0 0 0 0 0 0 0.25 0"/>
<feBlend mode="normal" in2="BackgroundImageFix" result="effect1_dropShadow_3_146"/>
<feBlend mode="normal" in="SourceGraphic" in2="effect1_dropShadow_3_146" result="shape"/>
</filter>
</defs>
</svg>
